<svg xmlns="http://www.w3.org/2000/svg" xmlns:xlink="http://www.w3.org/1999/xlink" version="1.1" x="0px" y="0px" viewBox="0 0 100 125" style="enable-background:new 0 0 100 100;" xml:space="preserve"><g><path d="M66.6308594,61.2866211L70.3603516,58.8125l13.3417969-23.3046875   c0.0036621-0.0063477,0.0092773-0.0108643,0.0130615-0.0170898l3.9195557-6.8447266l-3.4736328-1.9868164L66.8857422,56.8173828   L66.6308594,61.2866211z"/><path d="M85.152832,37.0048828L71.9785156,60.0117188c-0.078125,0.1347656-0.1855469,0.25-0.3154297,0.3359375   l-5.5908203,3.7099609c-0.0817261,0.0548706-0.1699219,0.0947876-0.2611694,0.1227417   c-0.0218506,0.0066528-0.0447998,0.0063477-0.0670166,0.0114746c-0.0696411,0.0161743-0.1394653,0.0299072-0.2108154,0.0307617   c-0.0046387,0.000061-0.0090942,0.0020142-0.0137329,0.0020142c-0.0490723,0-0.097168-0.0117188-0.145752-0.0189209   c-0.0338135-0.0050659-0.0678711-0.0045166-0.1011963-0.0130615c-0.0864868-0.0220337-0.1709595-0.0549316-0.2510986-0.1008301   c-0.328125-0.1879883-0.5214844-0.5458984-0.5-0.9238281l0.3808594-6.699707   c0.0087891-0.1547852,0.0527344-0.3056641,0.1298828-0.4404297l10.8935547-19.0229492H64.0927734   c-0.128479,0.1589355-0.265564,0.3081665-0.3968506,0.4640503c-0.1819458,0.2160034-0.3627319,0.4329834-0.5499268,0.6430054   c-0.1888428,0.211853-0.383667,0.4163818-0.5776978,0.6220703c-0.1907349,0.2022095-0.380127,0.4059448-0.5757446,0.6021118   c-0.2009277,0.2015381-0.4078369,0.3950806-0.6138306,0.5901489c-0.1985474,0.1881104-0.3955078,0.3779297-0.5985718,0.5599976   c-0.2122803,0.1903076-0.430542,0.3720093-0.647644,0.5556641c-0.2061768,0.1743164-0.4105225,0.3509521-0.6208496,0.519165   c-0.2232666,0.1785889-0.4523926,0.3480835-0.6802979,0.5197144c-0.2130737,0.1605225-0.4241943,0.3237915-0.6412354,0.4782104   c-0.2332153,0.1659546-0.472168,0.3222656-0.7097778,0.4810791c-0.2200928,0.1470947-0.4381104,0.2974243-0.6618042,0.4384155   c-0.2428589,0.1530151-0.4912109,0.2957153-0.7382202,0.4414063c-0.2260742,0.1333618-0.4500732,0.2703857-0.6795044,0.397522   c-0.2525635,0.1399536-0.510498,0.269165-0.7669678,0.4014893c-0.2310791,0.1192627-0.460022,0.2426758-0.6941528,0.3557129   c-0.2618408,0.1264038-0.5289917,0.241394-0.7944946,0.3599854c-0.2356567,0.1052246-0.4690552,0.21521-0.7074585,0.3141479   c-0.2703857,0.1123047-0.5458984,0.2124634-0.8197021,0.3166504c-0.2397461,0.0912476-0.4771729,0.1876221-0.7194824,0.272522   c-0.2802734,0.0982666-0.5653076,0.1838379-0.848877,0.2736816c-0.2411499,0.076416-0.4800415,0.1585693-0.7234497,0.2288208   c-0.293335,0.0846558-0.5911865,0.1558228-0.8876343,0.2314453c-0.2387695,0.0609741-0.4752808,0.1282959-0.7159424,0.1832886   c-0.3076782,0.0703735-0.6196289,0.1263428-0.9302368,0.1869507c-0.2340088,0.0456543-0.4659424,0.0983276-0.7015381,0.1384277   c-0.328186,0.0557861-0.6601563,0.0963745-0.9911499,0.1412964c-0.2121582,0.0288086-0.4222412,0.0663452-0.635498,0.0905762   c-0.0099487,0.0011597-0.0200806,0.0014648-0.0300293,0.0025635c-0.3690796,0.041626-0.7418213,0.0668945-1.1138916,0.0947876   c-0.1883545,0.0141602-0.375061,0.0365601-0.5641479,0.0471802c-0.5626831,0.0316162-1.1282959,0.0479126-1.6965942,0.0479126   c-0.5683594,0-1.1340332-0.0162964-1.6967163-0.0479126c-0.1849365-0.010376-0.3673706-0.0323486-0.5516357-0.0461426   c-0.3764038-0.0280762-0.753418-0.053833-1.126709-0.0958862c-0.2167358-0.0244141-0.4303589-0.0612793-0.6459351-0.0903931   c-0.3377686-0.0455933-0.6765747-0.0871582-1.0113525-0.144165c-0.227478-0.0386963-0.4514771-0.0898438-0.6774902-0.133728   c-0.3188477-0.0618896-0.6387939-0.1196899-0.9545898-0.1918945c-0.2319336-0.0530396-0.460022-0.118042-0.6901855-0.1766357   c-0.3052979-0.0776367-0.6120605-0.1511841-0.9141235-0.2384033c-0.2345581-0.067749-0.4648438-0.1470947-0.6973267-0.2205811   c-0.2923584-0.0923462-0.5860596-0.1807861-0.875-0.2821045c-0.2347412-0.0823364-0.4648438-0.1758423-0.6972046-0.2640991   c-0.2813721-0.1068115-0.5641479-0.2099609-0.8419189-0.3252563c-0.2316284-0.0961914-0.458252-0.203064-0.6872559-0.3051147   c-0.2724609-0.12146-0.5463257-0.239563-0.8148804-0.3692627c-0.2278442-0.1100464-0.4505005-0.2302856-0.675415-0.3461914   c-0.2627563-0.135376-0.5268555-0.2677612-0.7854614-0.4111328c-0.2245483-0.1244507-0.4436035-0.2585449-0.664917-0.3889771   c-0.251709-0.1483154-0.5048828-0.2939453-0.7523193-0.4498901c-0.2203369-0.138855-0.4351196-0.2869873-0.6519165-0.4318848   c-0.2406006-0.1607056-0.4824829-0.3190308-0.7185669-0.4870605c-0.2150879-0.1530762-0.4243164-0.3148804-0.635498-0.473938   c-0.2297974-0.1730957-0.4608154-0.3439331-0.6859741-0.5240479c-0.2088623-0.1669922-0.4116211-0.3423462-0.616272-0.5153809   c-0.2185059-0.1847534-0.4380493-0.3676758-0.6516724-0.5592041c-0.2020874-0.1811523-0.3980713-0.3700562-0.5956421-0.5571899   c-0.2069702-0.1959839-0.4147949-0.3904419-0.6166382-0.5928955c-0.1951294-0.1957397-0.3840332-0.3989258-0.5743408-0.600647   c-0.1942749-0.2059937-0.3894043-0.4107666-0.5784912-0.6229248c-0.1871948-0.210022-0.367981-0.427002-0.5499268-0.6430054   c-0.1312866-0.1558838-0.2683716-0.3051147-0.3968506-0.4640503H12v38h76v-38H85.152832z M40,68.0048828H17   c-0.5527344,0-1-0.4477539-1-1s0.4472656-1,1-1h23c0.5527344,0,1,0.4477539,1,1S40.5527344,68.0048828,40,68.0048828z    M49,58.0048828H17c-0.5527344,0-1-0.4477539-1-1s0.4472656-1,1-1h32c0.5527344,0,1,0.4477539,1,1   S49.5527344,58.0048828,49,58.0048828z"/><path d="M20.3476563,36.6518555c0.2432861,0.2764282,0.4963379,0.5412598,0.7489624,0.8065186   c0.1092529,0.1148071,0.2143555,0.2348633,0.3253174,0.3475342c0.276062,0.2802124,0.5616455,0.5482788,0.8479614,0.8153076   c0.0950928,0.0886841,0.1863403,0.182373,0.2825317,0.2695923c0.3043823,0.276001,0.6179199,0.5394287,0.9329834,0.8005371   c0.085022,0.0704956,0.166748,0.1456909,0.2525635,0.2150879c0.3250732,0.2628784,0.6587524,0.5128174,0.9943848,0.7598267   c0.0817261,0.0601807,0.1604614,0.125061,0.2428589,0.1843262c0.3421021,0.2460327,0.6925049,0.4787598,1.0447388,0.7081909   c0.0808105,0.0526123,0.1589355,0.1099243,0.2402344,0.1617432c0.3538208,0.2251587,0.7153931,0.4367676,1.0786133,0.6451416   c0.0845337,0.0485229,0.1664429,0.1018677,0.2514648,0.1494141c0.3582153,0.2003784,0.7236328,0.3868408,1.090271,0.5708008   c0.0947266,0.0475464,0.1867676,0.1003418,0.2820435,0.1467285c0.3623047,0.1765137,0.7314453,0.3386841,1.1013184,0.4990234   c0.1035156,0.0448608,0.2045288,0.09552,0.3086548,0.1390991c0.3540649,0.1482544,0.7143555,0.2819214,1.074707,0.4152832   c0.1246948,0.0461426,0.2467651,0.0986328,0.3721924,0.1430054c0.3546753,0.1254272,0.7150879,0.2359009,1.0753174,0.3467407   c0.1343994,0.0413208,0.2662964,0.0894165,0.4014282,0.1287231c0.3519897,0.102417,0.7091675,0.1896362,1.065918,0.2780762   c0.147583,0.0366211,0.2927856,0.0802612,0.4411011,0.1144409c0.3491821,0.0804443,0.7029419,0.1452637,1.0560913,0.2122192   c0.1593018,0.0302124,0.3164673,0.0678711,0.4765625,0.0952759c0.3499146,0.0599365,0.7037964,0.104126,1.0571289,0.1507568   c0.166626,0.0219727,0.3312378,0.0517578,0.4985352,0.0707397c0.3602905,0.0408936,0.7243042,0.0656738,1.0876465,0.0925903   c0.1630859,0.012085,0.324585,0.0321045,0.4882813,0.0413208c0.5279541,0.0298462,1.0587769,0.0449829,1.5921021,0.0449829   s1.064209-0.0151367,1.5921631-0.0449829c0.1633911-0.0092163,0.324585-0.0292358,0.4874878-0.0412598   c0.3632202-0.0269165,0.7269287-0.0516357,1.0870972-0.0925293c0.1864624-0.0211182,0.3701172-0.0539551,0.5557251-0.0787964   c0.3339233-0.0447388,0.6687622-0.0858765,0.9996338-0.1425781c0.1958008-0.0335083,0.3883057-0.0787964,0.5829468-0.1165161   c0.3162231-0.0612183,0.633667-0.1182861,0.9466553-0.1903076c0.2036133-0.046814,0.4033813-0.1055298,0.6055298-0.1569824   c0.3009033-0.0764771,0.6034546-0.1485596,0.9009399-0.2350464c0.1936035-0.0562744,0.3829346-0.1239014,0.5750122-0.1843872   c0.3007813-0.0946655,0.6031494-0.1852417,0.9000244-0.2901611c0.1906128-0.0673218,0.3765869-0.145752,0.5654297-0.2172241   c0.2939453-0.1112671,0.5894775-0.2185059,0.8792114-0.3397217c0.1825562-0.076355,0.3602905-0.1633911,0.5410767-0.2437134   c0.289856-0.1287842,0.5813599-0.2539063,0.8665771-0.3927002c0.178772-0.0869751,0.3522339-0.1842651,0.5290527-0.2751465   c0.2817383-0.1447754,0.5652466-0.2861938,0.8418579-0.4407349c0.1712646-0.0956421,0.3369751-0.201355,0.5061646-0.3007202   c0.2753906-0.1617432,0.5526123-0.3203125,0.8224487-0.4918213c0.1692505-0.1075439,0.3324585-0.2249756,0.4994507-0.3363037   c0.2627563-0.1752319,0.5275269-0.347229,0.7845459-0.5317993c0.1658325-0.1190796,0.3253784-0.2478027,0.4887695-0.3707275   c0.2509766-0.1888428,0.5040894-0.3745728,0.7490845-0.5723877c0.1593628-0.1287231,0.3120728-0.2667847,0.468811-0.399231   c0.2409058-0.2035522,0.4839478-0.4040527,0.7185059-0.6164551c0.1542969-0.1397705,0.3016968-0.2886963,0.453186-0.432251   c0.2284546-0.2164307,0.4591675-0.4298706,0.6810303-0.6547852c0.1484375-0.1505127,0.2894897-0.3100586,0.4349365-0.4643555   c0.2160645-0.229187,0.4343872-0.4555054,0.6435547-0.6929932c0.1420288-0.1613159,0.2763672-0.3313599,0.4151611-0.4963989   c0.1864624-0.2217407,0.3746338-0.4414063,0.5549927-0.6698608c-5.2773438-6.6817017-13.1344604-10.4968872-21.677063-10.4968872   c-8.541626,0-16.3987427,3.8156738-21.6760864,10.4968872c0.1931152,0.2445679,0.394165,0.4803467,0.5942383,0.7172241   C20.1016235,36.3560181,20.2211304,36.5079956,20.3476563,36.6518555z M41.0595703,27.0048828   c4.6845703,0,8.4951172,3.8110352,8.4951172,8.4951172s-3.8105469,8.4951172-8.4951172,8.4951172   c-4.6835938,0-8.4941406-3.8110352-8.4941406-8.4951172S36.3759766,27.0048828,41.0595703,27.0048828z"/></g><text x="0" y="115" fill="#000000" font-size="5px" font-weight="bold" font-family="'Helvetica Neue', Helvetica, Arial-Unicode, Arial, Sans-serif">Created by Graphic Enginer</text><text x="0" y="120" fill="#000000" font-size="5px" font-weight="bold" font-family="'Helvetica Neue', Helvetica, Arial-Unicode, Arial, Sans-serif">from the Noun Project</text></svg>