<svg xmlns="http://www.w3.org/2000/svg" viewBox="0 0 64 80" x="0px" y="0px"><title>motivation-promotion-goals-money-goal</title><g><path d="M29,21V61a1,1,0,0,0,2,0V56h8v5a1,1,0,0,0,2,0V24h9a7,7,0,0,0,1-13.929V10a7,7,0,0,0-14,0v.071A7,7,0,0,0,38,24h1v2H31V21a1,1,0,0,0-2,0Zm9,1a5,5,0,0,1,0-10,1,1,0,0,0,1-1V10a5,5,0,0,1,10,0v1a1,1,0,0,0,1,1,5,5,0,0,1,0,10H41V21a1,1,0,0,0-2,0v1ZM31,42V40h8v2Zm8,2v2H31V44Zm-8-6V36h8v2Zm0,10h8v2H31Zm8-14H31V32h8ZM31,54V52h8v2Zm8-26v2H31V28Z"/><path d="M25,39.5a4.506,4.506,0,0,0-4.1-4.482,5,5,0,0,0-9.806,0A4.5,4.5,0,0,0,11.5,44h9A4.505,4.505,0,0,0,25,39.5ZM20.5,42h-9a2.5,2.5,0,0,1,0-5H12a1,1,0,0,0,1-1,3,3,0,0,1,6,0,1,1,0,0,0,1,1h.5a2.5,2.5,0,0,1,0,5Z"/><path d="M25.717,16.693a1.018,1.018,0,0,0,.178-.246c0-.007,0-.015.007-.023.011-.023.016-.049.025-.073a1,1,0,0,0,.059-.236.888.888,0,0,0,0-.1.991.991,0,0,0-.023-.224.836.836,0,0,0-.023-.1A.985.985,0,0,0,25.8,15.4l-3-4A1,1,0,0,0,22,11H16a1,1,0,0,0-.8.4l-3,4a.985.985,0,0,0-.145.292.836.836,0,0,0-.023.1.988.988,0,0,0-.023.223.894.894,0,0,0,0,.1.976.976,0,0,0,.059.235c.009.025.014.051.025.075,0,.007,0,.015.007.022a1.018,1.018,0,0,0,.178.246l.01.014,6,6a1,1,0,0,0,1.414,0l6-6ZM16.5,13h5L23,15H15ZM19,20.586,15.414,17h7.172Z"/><rect x="21" y="6" width="2" height="3"/><rect x="24.586" y="9" width="2.828" height="2" transform="translate(0.544 21.314) rotate(-45)"/><rect x="15" y="6" width="2" height="3"/><rect x="11" y="8.586" width="2" height="2.828" transform="translate(-3.556 11.414) rotate(-45)"/><path d="M49,20a4,4,0,0,0,4-4,1,1,0,0,0-2,0,2,2,0,0,1-2,2,1,1,0,0,0,0,2Z"/></g><text x="0" y="79" fill="#000000" font-size="5px" font-weight="bold" font-family="'Helvetica Neue', Helvetica, Arial-Unicode, Arial, Sans-serif">Created by supalerk laipawat</text><text x="0" y="84" fill="#000000" font-size="5px" font-weight="bold" font-family="'Helvetica Neue', Helvetica, Arial-Unicode, Arial, Sans-serif">from the Noun Project</text></svg>