<svg xmlns="http://www.w3.org/2000/svg" xmlns:xlink="http://www.w3.org/1999/xlink" version="1.1" x="0px" y="0px" viewBox="0 0 100 125" style="enable-background:new 0 0 100 100;" xml:space="preserve"><style type="text/css">
	.st0{display:none;}
	.st1{display:inline;}
	.st2{fill:#332D2C;}
</style><g><path d="M79.6,40.3c-4.1-4.2-16.8-3-16.8-3l-2.9,1.6c0.5-0.4,0.9-0.8,1.2-1.1c5.7-5.7,11.5-16,5.1-25.9c-6.7-10.2-22.6-7.9-30-0.3   c-5.3,5.4-8.4,21.3,1.4,28.3l2.1,0.9v-0.9c0,0-11-15.1-0.8-24.5c10.2-9.4,20.3,0,20.6,0.4c0.4,0.5,9.2,11.7-3,22.9   c0,0-1.4,1.7-1.6,2.1c-0.3,0.8-0.3,1,0,1l-0.2,0.1l7.7-1.4c10.6-0.9,11.7,6.3,11.7,6.3c7.3,25.1-10.4,43-10.4,43l-0.6,1.6   c2.9-1.5,6.7-5.3,8.2-7.7C84.4,62.2,82.9,43.7,79.6,40.3z"/><path d="M42.2,89.7c-2.1-0.7-4-2.1-5.8-3.6c1.3-7.1,6.8-39.5-3-40.2c-2.3-0.2-4-0.1-5.2,0.1c4.3-3.3,10.3-5.2,10.3-5.2   c-3,0-11.4,2.2-15.3,4.1c-4.8,2.3-5.5,8.1-4.8,14.6c0.8,6.6,8.1,23.4,12.3,29.8C35,95.6,41.4,95,42.2,95c0.9,0,15.2-2.1,15.2-2.1   l-2.2-1.6C55.2,91.3,45.8,91,42.2,89.7z M31.8,80.9C26.2,72.5,21,63.3,24,51.4c0.1-0.5,0.4-1.1,0.6-1.6c0.8,0,5.8,0.4,7.1,1.7   c1.8,2,5.6,12,4.1,32.3l0.2,1.9C34.2,84.1,32.8,82.3,31.8,80.9z"/></g><text x="0" y="115" fill="#000000" font-size="5px" font-weight="bold" font-family="'Helvetica Neue', Helvetica, Arial-Unicode, Arial, Sans-serif">Created by Lívia Goto</text><text x="0" y="120" fill="#000000" font-size="5px" font-weight="bold" font-family="'Helvetica Neue', Helvetica, Arial-Unicode, Arial, Sans-serif">from the Noun Project</text></svg>